<svg width="46" height="46" viewBox="0 0 46 46" fill="none" xmlns="http://www.w3.org/2000/svg">
<circle cx="23" cy="23" r="23" fill="#F5F7F9"/>
<path fill-rule="evenodd" clip-rule="evenodd" d="M27.4588 21.8743L28.8331 20.4999L28.8331 20.4999C29.0676 20.2654 29.1849 20.1482 29.2693 20.036C29.8054 19.3238 29.8054 18.3428 29.2693 17.6306C29.1849 17.5184 29.0676 17.4011 28.8331 17.1666L28.8331 17.1666L28.8331 17.1666C28.5986 16.9321 28.4813 16.8149 28.3691 16.7304C27.6569 16.1944 26.6759 16.1944 25.9637 16.7304C25.8515 16.8149 25.7343 16.9321 25.4998 17.1666L25.4998 17.1666L24.1062 18.5602C24.9031 19.9405 26.0598 21.0883 27.4588 21.8743ZM22.6516 20.0148L17.1895 25.4769C16.7644 25.902 16.5519 26.1145 16.4122 26.3756C16.2724 26.6367 16.2135 26.9314 16.0956 27.5209L15.6469 29.7645C15.5803 30.0971 15.5471 30.2634 15.6417 30.358C15.7363 30.4526 15.9026 30.4194 16.2352 30.3529L18.4789 29.9041L18.4789 29.9041C19.0683 29.7862 19.363 29.7273 19.6241 29.5876C19.8852 29.4478 20.0978 29.2353 20.5228 28.8102L26.0004 23.3327C24.6525 22.4819 23.5104 21.3475 22.6516 20.0148Z" fill="black"/>
</svg>
