<svg width="46" height="46" viewBox="0 0 46 46" fill="none" xmlns="http://www.w3.org/2000/svg">
<circle cx="23" cy="23" r="23" fill="#F5F7F9"/>
<path fill-rule="evenodd" clip-rule="evenodd" d="M15.8386 15.8383C14.667 17.0098 14.667 18.8955 14.667 22.6667V23.3334C14.667 27.1046 14.667 28.9902 15.8386 30.1618C17.0101 31.3334 18.8958 31.3334 22.667 31.3334H23.3337C27.1049 31.3334 28.9905 31.3334 30.1621 30.1618C31.3337 28.9902 31.3337 27.1046 31.3337 23.3333V22.6667C31.3337 19.9948 31.3337 18.2694 30.917 17.0738V27.1667C30.1166 27.1667 29.349 26.8487 28.7831 26.2828L28.1567 25.6564C27.7767 25.2763 27.5866 25.0863 27.3932 24.9655C26.7449 24.5605 25.9224 24.5605 25.2741 24.9655C25.0807 25.0863 24.8907 25.2763 24.5106 25.6564L24.4163 25.7507L24.4163 25.7507C24.086 26.0811 23.9208 26.2462 23.762 26.3206C23.3696 26.5046 22.9034 26.4148 22.6073 26.0983C22.4876 25.9702 22.3955 25.7555 22.2115 25.3261L22.167 25.2222C21.7192 24.1775 21.4954 23.6551 21.1804 23.3651C20.6228 22.8516 19.8228 22.6976 19.1143 22.9672C18.7142 23.1195 18.3123 23.5214 17.5086 24.3251L15.917 25.9167V15.7626C15.8905 15.7872 15.8644 15.8125 15.8386 15.8383Z" fill="black"/>
<path d="M22.667 15.6666H23.3337C25.2475 15.6666 26.5824 15.6687 27.5895 15.8042C28.5679 15.9357 29.086 16.1763 29.455 16.5453C29.824 16.9143 30.0646 17.4324 30.1961 18.4108C30.3315 19.4179 30.3337 20.7527 30.3337 22.6666V23.3333C30.3337 25.2472 30.3315 26.582 30.1961 27.5891C30.0646 28.5675 29.824 29.0856 29.455 29.4546C29.086 29.8236 28.5679 30.0642 27.5895 30.1958C26.5824 30.3312 25.2475 30.3333 23.3337 30.3333H22.667C20.7531 30.3333 19.4183 30.3312 18.4112 30.1958C17.4328 30.0642 16.9147 29.8236 16.5457 29.4546C16.1767 29.0856 15.9361 28.5675 15.8045 27.5891C15.6691 26.582 15.667 25.2472 15.667 23.3333V22.6666C15.667 20.7527 15.6691 19.4179 15.8045 18.4108C15.9361 17.4324 16.1767 16.9143 16.5457 16.5453C16.9147 16.1763 17.4328 15.9357 18.4112 15.8042C19.4183 15.6687 20.7531 15.6666 22.667 15.6666Z" stroke="black" stroke-width="2"/>
<ellipse cx="25.4997" cy="20.5" rx="1.66667" ry="1.66667" fill="black"/>
</svg>
