<svg width="46" height="46" viewBox="0 0 46 46" fill="none" xmlns="http://www.w3.org/2000/svg">
<circle cx="23" cy="23" r="23" fill="#F5F7F9"/>
<path d="M21.4488 18.6182C22.0373 17.1509 22.3316 16.4173 22.8097 16.3156C22.9355 16.2888 23.0654 16.2888 23.1911 16.3156C23.6692 16.4173 23.9635 17.1509 24.5521 18.6182C24.8868 19.4526 25.0541 19.8698 25.3673 20.1536C25.4551 20.2332 25.5505 20.3041 25.652 20.3653C26.0139 20.5834 26.4657 20.6239 27.3694 20.7048C28.8991 20.8418 29.6639 20.9103 29.8975 21.3464C29.9459 21.4367 29.9787 21.5345 29.9948 21.6357C30.0722 22.1243 29.5099 22.6359 28.3854 23.659L28.0731 23.9431C27.5473 24.4214 27.2845 24.6606 27.1324 24.9591C27.0412 25.1381 26.9801 25.3309 26.9514 25.5298C26.9036 25.8613 26.9806 26.2083 27.1346 26.9022L27.1896 27.1501C27.4657 28.3945 27.6037 29.0167 27.4314 29.3226C27.2766 29.5973 26.9915 29.7732 26.6765 29.7882C26.3259 29.8049 25.8318 29.4023 24.8436 28.5971C24.1926 28.0667 23.8671 27.8014 23.5057 27.6978C23.1755 27.6031 22.8253 27.6031 22.4951 27.6978C22.1337 27.8014 21.8082 28.0667 21.1572 28.5971C20.1691 29.4023 19.675 29.8049 19.3243 29.7882C19.0094 29.7732 18.7243 29.5973 18.5695 29.3226C18.3971 29.0167 18.5352 28.3945 18.8113 27.1501L18.8663 26.9022C19.0202 26.2083 19.0972 25.8613 19.0495 25.5298C19.0208 25.3309 18.9596 25.1381 18.8684 24.9591C18.7164 24.6606 18.4535 24.4214 17.9278 23.9431L17.6155 23.659C16.4909 22.6359 15.9286 22.1243 16.0061 21.6357C16.0221 21.5345 16.055 21.4367 16.1034 21.3464C16.3369 20.9103 17.1018 20.8418 18.6315 20.7048C19.5351 20.6239 19.9869 20.5834 20.3489 20.3653C20.4504 20.3041 20.5457 20.2332 20.6336 20.1536C20.9467 19.8698 21.1141 19.4526 21.4488 18.6182Z" fill="black" stroke="black" stroke-width="2"/>
</svg>
