<svg width="20" height="20" viewBox="0 0 20 20" fill="none" xmlns="http://www.w3.org/2000/svg">
<path d="M17.5 2.5V1.75H18.25V2.5H17.5ZM9.697 11.3637C9.4041 11.6566 8.92923 11.6566 8.63634 11.3637C8.34344 11.0708 8.34344 10.5959 8.63634 10.303L9.697 11.3637ZM16.75 9.16667V2.5H18.25V9.16667H16.75ZM17.5 3.25H10.8333V1.75H17.5V3.25ZM18.0303 3.03033L9.697 11.3637L8.63634 10.303L16.9697 1.96967L18.0303 3.03033Z" fill="black"/>
<path d="M16.667 12.5V12.5C16.667 13.5856 16.667 14.1285 16.5281 14.5688C16.2338 15.5023 15.5026 16.2335 14.5691 16.5279C14.1287 16.6667 13.5859 16.6667 12.5003 16.6667H9.33366C6.50523 16.6667 5.09102 16.6667 4.21234 15.788C3.33366 14.9093 3.33366 13.4951 3.33366 10.6667V7.50004C3.33366 6.41443 3.33366 5.87163 3.47251 5.43126C3.76684 4.49776 4.49805 3.76655 5.43154 3.47222C5.87192 3.33337 6.41472 3.33337 7.50033 3.33337V3.33337" stroke="black" stroke-width="1.5" stroke-linecap="round"/>
</svg>
